#!OML:ASF F:\VICON\USERDATA\INSTALL\rory3\rory3.ASF
:FULLY-SPECIFIED
:DEGREES
1564
root 2.23055 17.7137 12.445 -174.721 -6.91125 177.272
lowerback -1.24533 -0.614238 -2.67694
upperback -2.22063 -0.864534 2.04543
thorax -1.51256 -0.404233 3.60737
lowerneck -19.3966 6.95263 -6.76412
upperneck 37.3964 10.866 -1.50798
head 16.433 2.10173 2.22545
rclavicle -3.48727e-015 -1.03368e-014
rhumerus -35.706 -11.0828 -77.1927
rradius 28.1608
rwrist 23.879
rhand -20.1775 2.39299
rfingers 7.12502
rthumb 6.16849 -27.4972
lclavicle -3.48727e-015 -1.03368e-014
lhumerus -32.9993 7.69997 85.4755
lradius 36.2797
lwrist -9.06322
lhand -13.6391 20.6195
lfingers 7.12502
lthumb 12.4771 50.227
rfemur -14.5581 3.80193 20.5782
rtibia 32.5972
rfoot -23.0382 -6.74903
rtoes 12.5376
lfemur -9.66875 -0.094888 -24.1035
ltibia 23.6106
lfoot -14.5996 3.70648
ltoes -10.4705
1565
root 2.20795 17.7173 12.4486 -174.636 -7.31667 177.303
lowerback -1.2493 -0.676965 -2.44272
upperback -2.33106 -0.953877 2.02729
thorax -1.62002 -0.45172 3.45744
lowerneck -19.3047 7.22635 -6.51101
upperneck 37.4172 11.2049 -1.54747
head 16.4293 2.27337 2.22556
rclavicle 1.22734e-014 7.15625e-015
rhumerus -35.7514 -10.98 -77.2848
rradius 28.3193
rwrist 23.7325
rhand -20.1001 2.16466
rfingers 7.12502
rthumb 6.24316 -27.7233
lclavicle 1.22734e-014 7.15625e-015
lhumerus -33.1575 7.65255 85.4136
lradius 36.011
lwrist -8.94326
lhand -13.8059 20.9328
lfingers 7.12502
lthumb 12.3163 50.55
rfemur -14.6481 3.44723 20.5547
rtibia 32.5836
rfoot -22.9896 -6.84163
rtoes 12.1928
lfemur -9.80769 -0.304497 -24.1168
ltibia 23.5993
lfoot -14.5229 3.545
ltoes -10.4864
1566
root 2.19112 17.7198 12.4541 -174.549 -7.58884 177.33
lowerback -1.282 -0.69219 -2.33185
upperback -2.35022 -0.975634 2.05092
thorax -1.62085 -0.4649 3.41901
lowerneck -19.3589 7.43828 -6.33322
upperneck 37.3231 11.5354 -1.62199
head 16.4029 2.4433 2.22956
rclavicle 3.03131e-014 -2.8625e-014
rhumerus -35.6222 -10.9185 -77.3311
rradius 28.4082
rwrist 23.7305
rhand -20.1489 2.10673
rfingers 7.12502
rthumb 6.1961 -27.7827
lclavicle 3.03131e-014 -2.8625e-014
lhumerus -33.1142 7.54136 85.4837
lradius 35.8488
lwrist -8.29191
lhand -13.2065 22.853
lfingers 7.12502
lthumb 12.8942 52.4347
rfemur -14.731 3.27319 20.5405
rtibia 32.558
rfoot -22.9642 -6.97173
rtoes 11.7041
lfemur -9.94801 -0.376082 -24.1247
ltibia 23.5934
lfoot -14.4121 3.34735
ltoes -10.2181
1567
root 2.17819 17.722 12.4545 -174.492 -7.74277 177.31
lowerback -1.34743 -0.671996 -2.34119
upperback -2.29781 -0.94638 2.08221
thorax -1.53182 -0.451559 3.45505
lowerneck -19.6359 7.63246 -6.25635
upperneck 37.2995 11.8989 -1.64469
head 16.4544 2.61123 2.29102
rclavicle 2.52177e-014 -1.66979e-014
rhumerus -35.3051 -10.9039 -77.3904
rradius 28.3844
rwrist 23.8213
rhand -20.4032 2.23319
rfingers 7.12502
rthumb 5.95052 -27.6632
lclavicle 2.52177e-014 -1.66979e-014
lhumerus -33.0065 7.3852 85.5621
lradius 35.7593
lwrist -7.8145
lhand -12.7333 23.8916
lfingers 7.12502
lthumb 13.3503 53.4439
rfemur -14.7566 3.32421 20.4893
rtibia 32.5379
rfoot -23.0305 -7.16644
rtoes 11.3786
lfemur -10.0133 -0.462261 -24.185
ltibia 23.5961
lfoot -14.3459 3.30326
ltoes -10.1137
1568
root 2.1609 17.7227 12.4508 -174.442 -7.76738 177.35
lowerback -1.40485 -0.59891 -2.22277
upperback -2.34655 -0.851602 2.07556
thorax -1.55857 -0.406478 3.38131
lowerneck -19.7228 7.93358 -6.00728
upperneck 37.3918 12.3078 -1.65606
head 16.5296 2.80706 2.32874
rclavicle 1.56799e-014 -7.15625e-015
rhumerus -35.3008 -10.8921 -77.4807
rradius 28.6006
rwrist 23.8089
rhand -20.5082 2.30868
rfingers 7.12502
rthumb 5.84922 -27.5906
lclavicle 1.56799e-014 -7.15625e-015
lhumerus -33.101 7.29671 85.5098
lradius 35.5704
lwrist -7.76153
lhand -12.5939 25.034
lfingers 7.12502
lthumb 13.4846 54.5775
rfemur -14.8046 3.24892 20.4656
rtibia 32.5353
rfoot -22.9923 -7.20255
rtoes 10.8657
lfemur -10.0379 -0.585486 -24.216
ltibia 23.588
lfoot -14.3602 3.41448
ltoes -9.97472
1569
root 2.15086 17.7212 12.4467 -174.448 -7.71767 177.347
lowerback -1.42907 -0.473433 -2.23022
upperback -2.4067 -0.686226 2.03664
thorax -1.61968 -0.323139 3.34597
lowerneck -19.5811 8.24611 -5.60561
upperneck 37.388 12.6674 -1.74062
head 16.5229 3.00758 2.28916
rclavicle -9.58204e-015 4.21423e-014
rhumerus -35.4397 -10.9368 -77.5522
rradius 28.8474
rwrist 23.6733
rhand -20.477 1.99118
rfingers 7.12502
rthumb 5.87931 -27.9073
lclavicle -9.58204e-015 4.21423e-014
lhumerus -33.2991 7.20934 85.3666
lradius 35.4206
lwrist -8.02844
lhand -11.7762 28.137
lfingers 7.12502
lthumb 14.2727 57.6265
rfemur -14.757 3.30035 20.412
rtibia 32.5303
rfoot -23.0726 -7.10456
rtoes 11.034
lfemur -9.99653 -0.453981 -24.2656
ltibia 23.583
lfoot -14.4189 3.34332
ltoes -10.1394
1570
root 2.14331 17.722 12.4463 -174.51 -7.80988 177.32
lowerback -1.43659 -0.409019 -2.33268
upperback -2.35479 -0.597605 2.06925
thorax -1.56765 -0.277426 3.43716
lowerneck -19.5237 8.53735 -5.38528
upperneck 37.275 13.0828 -1.81067
head 16.4649 3.22328 2.29893
rclavicle -1.65333e-014 1.11319e-014
rhumerus -35.3106 -10.8042 -77.6291
rradius 28.9551
rwrist 23.4893
rhand -20.7334 1.8239
rfingers 7.12502
rthumb 5.63171 -28.0813
lclavicle -1.65333e-014 1.11319e-014
lhumerus -33.3591 7.47688 85.2472
lradius 35.2613
lwrist -8.80353
lhand -12.4457 24.8561
lfingers 7.12502
lthumb 13.6275 54.3901
rfemur -14.6318 3.26575 20.3745
rtibia 32.5242
rfoot -23.1487 -7.20562
rtoes 10.8841
lfemur -9.93466 -0.237993 -24.3106
ltibia 23.5976
lfoot -14.4658 3.05305
ltoes -10.1928
1571
root 2.12619 17.7212 12.4476 -174.473 -7.98859 177.362
lowerback -1.52427 -0.390858 -2.26084
upperback -2.28249 -0.571972 2.15489
thorax -1.4458 -0.268065 3.48378
lowerneck -19.7005 8.806 -5.40418
upperneck 37.1929 13.5608 -1.78851
head 16.448 3.43999 2.41087
rclavicle 1.64141e-014 -2.3059e-014
rhumerus -34.9917 -10.5671 -77.6671
rradius 29.002
rwrist 23.4047
rhand -21.0712 2.18728
rfingers 7.12502
rthumb 5.30558 -27.7263
lclavicle 1.64141e-014 -2.3059e-014
lhumerus -33.2687 7.86104 85.2111
lradius 34.8797
lwrist -9.18212
lhand -11.3641 27.1538
lfingers 7.12502
lthumb 14.6697 56.6148
rfemur -14.6534 3.21859 20.3719
rtibia 32.52
rfoot -23.232 -7.28038
rtoes 10.8141
lfemur -9.98731 -0.3025 -24.3148
ltibia 23.5998
lfoot -14.47 2.95227
ltoes -10.1332
1572
root 2.10815 17.7215 12.4489 -174.425 -8.11416 177.396
lowerback -1.52465 -0.30235 -2.13709
upperback -2.31694 -0.456718 2.15984
thorax -1.49053 -0.2122 3.4197
lowerneck -19.6338 9.09279 -5.25533
upperneck 37.1097 13.9553 -1.75777
head 16.3865 3.6512 2.47022
rclavicle 3.30448e-014 -4.77083e-015
rhumerus -34.9917 -10.6118 -77.6331
rradius 29.1881
rwrist 23.4533
rhand -21.2392 2.4012
rfingers 7.12502
rthumb 5.14337 -27.5164
lclavicle 3.30448e-014 -4.77083e-015
lhumerus -33.2943 7.98568 85.1197
lradius 34.3524
lwrist -9.3088
lhand -13.1952 22.9293
lfingers 7.12502
lthumb 12.905 52.5103
rfemur -14.6925 3.23852 20.353
rtibia 32.5195
rfoot -23.3069 -7.35228
rtoes 10.7659
lfemur -10.0394 -0.406829 -24.3328
ltibia 23.5788
lfoot -14.4997 2.89167
ltoes -9.96312
1573
root 2.09668 17.7248 12.4482 -174.449 -8.24075 177.432
lowerback -1.52197 -0.210163 -2.08373
upperback -2.34638 -0.33499 2.13169
thorax -1.53175 -0.151752 3.36104
lowerneck -19.2184 9.46221 -4.86316
upperneck 36.8363 14.3818 -1.86094
head 16.1838 3.91834 2.41619
rclavicle 9.4578e-015 -1.74931e-014
rhumerus -35.0477 -10.7186 -77.6701
rradius 29.3614
rwrist 23.4551
rhand -21.2091 2.51223
rfingers 7.12502
rthumb 5.17243 -27.4046
lclavicle 9.4578e-015 -1.74931e-014
lhumerus -33.3991 8.08437 84.9303
lradius 33.9661
lwrist -9.76898
lhand -14.2143 20.8262
lfingers 7.12502
lthumb 11.9224 50.4667
rfemur -14.6508 3.30084 20.3626
rtibia 32.5194
rfoot -23.3929 -7.59798
rtoes 10.4008
lfemur -10.0022 -0.349765 -24.3168
ltibia 23.5433
lfoot -14.493 2.67476
ltoes -9.60122
1574
root 2.0826 17.7259 12.4449 -174.45 -8.4105 177.473
lowerback -1.60586 -0.132189 -1.99393
upperback -2.34101 -0.231387 2.12218
thorax -1.48692 -0.102553 3.30034
lowerneck -18.8718 9.79703 -4.55832
upperneck 36.543 14.7986 -1.95527
head 15.9841 4.17285 2.38068
rclavicle 6.07846e-015 -8.74653e-015
rhumerus -34.9891 -10.7239 -77.7256
rradius 29.5318
rwrist 23.422
rhand -21.1247 2.56408
rfingers 7.12502
rthumb 5.25395 -27.3508
lclavicle 6.07846e-015 -8.74653e-015
lhumerus -33.4636 8.21886 84.8003
lradius 33.5839
lwrist -9.96652
lhand -14.0412 21.0452
lfingers 7.12502
lthumb 12.0894 50.6759
rfemur -14.6106 3.25067 20.3737
rtibia 32.5291
rfoot -23.5014 -7.69732
rtoes 10.3541
lfemur -9.96205 -0.377154 -24.3007
ltibia 23.486
lfoot -14.4624 2.50949
ltoes -9.57872
1575
root 2.06603 17.7262 12.4425 -174.44 -8.47926 177.438
lowerback -1.63485 -0.0573242 -2.0301
upperback -2.35825 -0.132488 2.15787
thorax -1.4956 -0.0526593 3.35802
lowerneck -18.7567 10.1434 -4.44913
upperneck 36.4549 15.2892 -1.93486
head 15.9102 4.4168 2.45206
rclavicle -1.19271e-014 7.95139e-015
rhumerus -35.0155 -10.4125 -77.7822
rradius 29.8096
rwrist 23.5582
rhand -21.3295 2.38338
rfingers 7.12502
rthumb 5.05623 -27.5363
lclavicle -1.19271e-014 7.95139e-015
lhumerus -33.5224 8.39711 84.7392
lradius 33.1362
lwrist -9.94166
lhand -13.58 22.0321
lfingers 7.12502
lthumb 12.534 51.6361
rfemur -14.6 3.22298 20.2795
rtibia 32.5331
rfoot -23.4897 -7.75139
rtoes 10.2505
lfemur -9.92183 -0.409539 -24.3926
ltibia 23.4338
lfoot -14.4744 2.43689
ltoes -9.52542
1576
root 2.05163 17.7284 12.4444 -174.383 -8.54714 177.439
lowerback -1.67122 0.018939 -2.06503
upperback -2.38976 -0.032648 2.20931
thorax -1.51523 -0.00235116 3.43141
lowerneck -18.8936 10.4775 -4.47117
upperneck 36.546 15.7681 -1.68669
head 15.9405 4.65223 2.65559
rclavicle 1.00138e-014 -7.15625e-015
rhumerus -35.0631 -10.2157 -77.7977
rradius 30.0548
rwrist 23.8996
rhand -21.597 2.43928
rfingers 7.12502
rthumb 4.79794 -27.4864
lclavicle 1.00138e-014 -7.15625e-015
lhumerus -33.7413 8.642 84.6265
lradius 32.9527
lwrist -10.3239
lhand -13.7646 21.4309
lfingers 7.12502
lthumb 12.3561 51.0458
rfemur -14.6642 3.18456 20.2273
rtibia 32.5206
rfoot -23.4384 -7.89529
rtoes 9.81007
lfemur -9.97469 -0.451165 -24.4419
ltibia 23.4175
lfoot -14.482 2.3891
ltoes -9.542
1577
root 2.03848 17.7282 12.4468 -174.365 -8.66683 177.484
lowerback -1.70558 0.0976556 -2.0165
upperback -2.33443 0.0735157 2.23388
thorax -1.44685 0.0489815 3.42959
lowerneck -19.0622 10.7798 -4.35415
upperneck 36.4755 16.223 -1.59952
head 15.934 4.89387 2.76889
rclavicle 1.3828e-014 -3.65764e-014
rhumerus -34.9006 -10.2382 -77.8116
rradius 30.2055
rwrist 24.1145
rhand -21.4311 3.44596
rfingers 7.12502
rthumb 4.95806 -26.476
lclavicle 1.3828e-014 -3.65764e-014
lhumerus -33.7045 8.93948 84.4724
lradius 32.6214
lwrist -10.7953
lhand -14.1866 20.3334
lfingers 7.12502
lthumb 11.9492 49.9724
rfemur -14.6565 3.18052 20.2362
rtibia 32.4977
rfoot -23.5212 -7.91799
rtoes 10.1016
lfemur -10.0145 -0.45398 -24.4262
ltibia 23.4241
lfoot -14.4971 2.25576
ltoes -9.40663
